# xmcd
#
# Track frame offsets:
#	150
#	11119
#	21055
#	33874
#	44775
#	54609
#	64789
#	74387
#	85088
#	95337
#	106563
#	116639
#	128616
#	138400
#	149566
#	161366
#	173506
#	182156
#	194178
#	204151
#	215917
#	225527
#	235868
#	247886
#	260353
#
# Disc length: 3619 seconds
# Revision: 0
# Processed by: cddbd v1.5.2PL0 Copyright (c) Steve Scherf et al.
# Submitted via: dBpowerAMP V12.0
#
DISCID=5f0e2119
DTITLE=Various Artist - Rock-A-Billy Cowboys [Disc 6]
DYEAR=1960
DGENRE=Rockabilly
TTITLE0=Burt Kline - Shave Off Short Stuff
TTITLE1=Don Hager - Liza Jane Bop
TTITLE2=Tillman Franks and His Rainbow Boys - Hi-Tone Poppa
TTITLE3=Curley Langley and His Western All Stars - Rockin' and Rollin'
TTITLE4=Jimmy and Johnny - Sweet Love on My Mind
TTITLE5=Paul Durham - Mean Woman Married Man Blues
TTITLE6=Carl Smith - Go Boy Go
TTITLE7=Rex and Herb - Come Back Big Bertha
TTITLE8=Lee Emerson - I Cried Like a Baby
TTITLE9=Vernon Stewart - Mean, Mean Baby
TTITLE10=Rusty Howard - No Help Wanted
TTITLE11=Kenny Brown and Arkansas Ramblers - Throw 'A Little Wood On' the Fire
TTITLE12=Faron Young - Honey Stop
TTITLE13=Jerry Reed - When I Found You
TTITLE14=Skeets McDonald - You Better Not Go
TTITLE15=Louvin Brothers - Cash on the Barrelhead
TTITLE16=Rose Maddox - My Little Baby
TTITLE17=Tennessee Ernie Ford - Smokey Mountain Boogie
TTITLE18=Tommy Collins - Black Cat
TTITLE19=Farmer Boys - Cool Down Mama
TTITLE20=Jean Shepard - He's My Baby
TTITLE21=Hank Thompson - Lost John
TTITLE22=Cliffie Stone - Jump Rope Boogie
TTITLE23=Jimmie Heap - Sebbin 'Come Elebbin
TTITLE24=Faron Young - When It Rains, It Pours
EXTD=
EXTT0=
EXTT1=
EXTT2=
EXTT3=
EXTT4=
EXTT5=
EXTT6=
EXTT7=
EXTT8=
EXTT9=
EXTT10=
EXTT11=
EXTT12=
EXTT13=
EXTT14=
EXTT15=
EXTT16=
EXTT17=
EXTT18=
EXTT19=
EXTT20=
EXTT21=
EXTT22=
EXTT23=
EXTT24=
PLAYORDER=
